<?xml version="1.0" encoding="UTF-8" standalone="no"?>
<!DOCTYPE svg PUBLIC "-//W3C//DTD SVG 1.1//EN" "http://www.w3.org/Graphics/SVG/1.1/DTD/svg11.dtd">
<svg width="100%" height="100%" viewBox="0 0 186 270" version="1.1" xmlns="http://www.w3.org/2000/svg" xmlns:xlink="http://www.w3.org/1999/xlink" xml:space="preserve" xmlns:serif="http://www.serif.com/" style="fill-rule:evenodd;clip-rule:evenodd;stroke-linejoin:round;stroke-miterlimit:2;">
    <g transform="matrix(1,0,0,1,0.0755992,0.0506419)">
        <path d="M185.1,77.98C187.1,71.91 185.17,64.82 177.13,60.79C176.2,60.32 175.22,59.96 174.21,59.71C166.15,31.01 142.04,5.11 111.14,0.42C105.3,-0.25 99.43,-0.01 93.55,0L89.74,0C84.19,-0.01 78.64,-0.23 73.15,0.35C42.12,4.77 17.62,30.77 9.44,58.87C8.89,59.04 8.36,59.26 7.85,59.52C2.9,61.87 0.47,66.03 0.99,70.52C1.22,72.61 2.03,74.42 3.32,75.99C0.29,80.69 -1.5,87.27 3.12,92.06C4.73,93.85 6.75,95.21 9.02,96.02L10.99,108.96C11.43,111.78 12.72,114.15 14.61,116.13L29.19,233.73C29.59,237.14 30.9,239.69 32.5,241.6L32.5,244.02C32.5,251.7 37.95,258.94 53.12,264.08C62.73,267.48 76.82,268.95 90.32,268.95C103.82,268.95 117.92,267.48 127.52,264.08C142.69,258.94 148.14,254.62 148.14,243.89L148.14,242.13C150.73,239.72 151.74,236.76 152.22,232.91L166.78,120.11C170.13,116.71 171.33,111.21 172.22,102.14C179.85,99.25 186.72,91.09 183.23,81.34C182.8,80.12 182.27,78.94 181.62,77.82C182.34,76.79 183.3,76.19 185.1,78.01L185.1,77.98Z" style="fill:rgb(230,230,230);fill-rule:nonzero;"/>
        <path d="M0.01,65.71C1.36,62.17 3.71,59.58 7.89,58.51C15.06,31.32 38.35,4.76 69.21,0.41C74.7,-0.23 80.21,0.01 85.72,-0L89.51,-0C95.37,-0.01 101.22,-0.25 107.03,0.41C137.86,5.09 161.93,30.91 170.01,59.52C176.18,60.79 183.04,66.78 180.51,75.32C180.16,76.52 179.64,77.65 178.96,78.68C184.09,86.02 181.08,95.06 171.21,99.17C170.28,107.11 169.44,113.91 166.16,117.47L151.47,231.27C150.89,235.9 149.58,239 147.21,240.91L147.21,243.89C147.21,252.93 142.28,257.67 126.62,263.07C108.11,269.39 73.01,269.39 54.5,263.07C41.07,258.21 34.41,253.94 34.41,244.9L34.41,239.99C32.18,238.07 30.73,235.67 30.28,232.1L15.34,114C13.06,112.02 11.5,109.4 10.91,106.19L9.18,96.16C2.98,94.19 -1.71,88.91 1.51,81.42C2.27,79.51 3.31,77.79 4.57,76.28C0.72,73.99 -0.42,70.14 0.01,65.69L0.01,65.71Z" style="fill:white;fill-rule:nonzero;"/>
        <path d="M163.8,63.72C157.14,36.16 134.33,7.61 103.33,3.76C96.81,2.96 90.01,3.11 83.49,3.11C78.7,3.11 73.91,3.04 69.23,4.23C41.09,10.38 17.13,37.11 13.13,63.85C7.75,64.31 4.3,67.64 4.15,71.75C4,76.31 8.44,79.15 13.93,80.61L16.09,108.01C16.67,114.16 23.63,118.72 35.13,121.41L37.14,230.11C37.29,237.61 44.68,240.9 52.66,243.61C68.32,249.21 101.83,249.21 119.2,243.61C128.14,240.49 139.93,238.21 141.18,230.26L158.01,112.06C160.43,109.66 161.16,106.97 161.74,102.86L163.95,91.98C170.3,89.85 173.03,86.29 172.3,82.44C171.71,79.32 169.43,76.2 168.11,74.74C171.86,72.66 172.74,65.73 163.8,63.74L163.8,63.72Z" style="fill-rule:nonzero;"/>
        <path d="M10.91,66.11C16.21,38.11 38.88,10.11 70.67,6.26C77.04,5.49 83.54,5.61 89.98,5.61C96.12,5.61 102.26,5.41 108.25,7.01C135.81,14.66 156.82,37.11 162.66,64.82C166.66,66.13 169.65,68.37 168.62,72.77C167.31,78.62 156.82,80.76 150.83,82.22C124.15,88.52 75.12,88.67 46.13,84.82C35.18,83.28 15.1,80.76 10.05,75.85C6.35,72.24 6.5,68.54 10.95,66.11L10.91,66.11Z" style="fill:rgb(184,210,223);fill-rule:nonzero;"/>
        <path d="M159.2,65.1C152.83,40.07 133.09,15.16 103.31,8.42C98.86,7.33 94.26,6.76 89.66,6.62C93.21,7.33 96.68,8.41 100.01,9.85C122.93,19.62 138.44,36.96 146.57,60.79C150.73,61.85 156.27,63.11 159.2,65.1Z" style="fill:rgb(130,176,196);fill-rule:nonzero;"/>
        <path d="M166.6,77.73C168.61,81.29 170.62,85.14 166.45,89.13C160.15,95.28 132.16,99.89 100.07,101.19C65.1,102.6 31.16,98.91 10.61,93.85C4.04,92.06 2.2,87.27 5.24,81.72L6.84,78.6C11.43,82.17 17.25,83.43 23.6,84.69C39.11,87.97 58.56,88.93 83.6,89.23C105.7,89.53 133.69,87.19 148.12,83.91C155.23,82.17 161.71,80.61 166.6,77.73Z" style="fill:rgb(184,210,223);fill-rule:nonzero;"/>
        <path d="M136.8,238.2L136.8,243.4C136.8,248.75 131.31,252 118.48,255.12C101.65,259.52 76.16,259.52 60.05,255.12C48.4,251.7 40.28,248.75 40.28,242.14L40.28,237.6C45.17,242.21 51.45,244.61 58.26,246.21C74.68,250.31 103.25,249.6 118.48,245.61C125.53,243.6 131.75,241.74 136.8,238.2Z" style="fill-rule:nonzero;"/>
        <path d="M136.5,238.9L136.5,242.6C136.5,248 128.16,250.79 117.98,253.35C102.17,257.64 77.14,257.34 63.13,253.35C53.1,250.3 43.35,247.7 42.92,242.6L42.92,239.71C47.66,243.7 53.85,245.79 61.09,247.4C75.78,250.74 104.05,249.99 117.98,246.35C125.25,244.29 131.46,242.29 136.5,238.9Z" style="fill:rgb(184,210,223);fill-rule:nonzero;"/>
        <path d="M156.1,113.3L139.41,230.1C138.38,237.45 126.93,240.53 113.35,243.2C97.74,246.49 71.96,245.79 58.68,242.26C49.29,239.47 41.31,236.9 40.12,229.75L22.15,114.45C30.84,119.21 47.95,122.38 63.41,122.65L63.48,122.1C50.05,121.04 31.04,117.95 22.15,112.94C18.88,111.08 17.84,108.94 17.55,106.05L16.38,96.86C34.2,101.22 56.71,103.78 84.11,103.78C108.27,103.78 137.46,100.79 158.83,95.83L157.14,107.14C156.55,111.38 152.11,114.19 142.87,117.14C134.79,119.88 121.36,122.1 111.44,123.1L111.59,123.86C122.83,123.71 148.61,119.81 156.1,113.34L156.1,113.3Z" style="fill:rgb(184,210,223);fill-rule:nonzero;"/>
        <path d="M156.1,113.3L139.41,230.1C138.53,236.55 130.12,239.77 117.96,242.41L124.36,207.76L126.37,144.14L136.78,118.26L139.41,116.95L142.87,115.65C149.11,113.43 154.2,111.03 156.1,107.15L156.1,113.35L156.1,113.3Z" style="fill:rgb(130,176,196);fill-rule:nonzero;"/>
        <path d="M27.02,105.3C31.91,103.89 37.87,103.73 48.31,104.29L48.31,104.59C39.81,103.83 33.21,104.29 27.02,106.48C25.17,107.19 23.61,108.14 22.42,109.09L22.28,108.64C23.61,107.34 25.24,106.15 27.02,105.3Z" style="fill:rgb(103,148,165);fill-rule:nonzero;"/>
        <path d="M140,103.6C145.79,104.46 151.83,106.02 154.41,108.91L154.26,108.46C151.38,105.72 146.29,103.96 140,102.95C135.4,102.19 130.66,101.69 126.36,101.34L126.36,101.69C130.52,102.09 135.46,102.8 140,103.6Z" style="fill:rgb(103,148,165);fill-rule:nonzero;"/>
        <path d="M44.32,103.2L47.35,120.86L42.26,119.96L39.95,102.79L44.32,103.2Z" style="fill:white;fill-rule:nonzero;"/>
        <path d="M131.7,102L128.97,120.12L126.39,120.57L128.97,101.55L131.7,102Z" style="fill:white;fill-rule:nonzero;"/>
        <path d="M132.6,89.68L131.96,96.33L129.38,96.83L130.12,89.38L132.6,89.68Z" style="fill:white;fill-rule:nonzero;"/>
        <path d="M131.7,31.42C137.42,39.07 142.69,47.16 145.42,56.65L135.25,56.2C132.77,44.28 125.66,35.25 115.48,29.85L115.77,30.41C125.32,39.72 131.55,50.93 131.7,64.41L131.41,76.03L129.1,75.88C124.51,74.97 120.91,75.12 119.46,75.12L119.61,75.58C127.25,76.33 136,77.59 145.1,76.33C152.23,75.43 157.9,73.92 158.65,70.41C159.53,66.21 152.92,63.82 143.09,62.1C130.71,59.81 111.51,57.7 85.73,57.7C60.09,57.7 41.18,58.91 30,61.45C21.25,63.61 15.31,65.71 15.75,69.85C16.2,73.87 24.04,75.12 32.27,76.18C44.38,77.79 59.85,78.74 74.97,78.6L78.19,76.03C64.17,76.33 51.04,76.78 39.8,75.43C33.2,74.57 23.45,73.37 20.17,70.41C28.3,68.7 37.9,68.24 47.61,67.74L55.9,67.29L55.9,66.94C44.95,67.29 32.12,68.09 21.22,70.11C18.19,69.05 16.64,67.59 18.65,66.03C24.14,62.03 45.51,59.39 83.79,59.39C114.3,59.39 137.81,61.65 149.87,64.72C155.81,66.38 158.54,67.74 158.54,69.85C158.54,70.71 157.66,71.46 156.35,72.17L155.76,70.66C156.35,71.06 156.79,71.46 157.08,71.91C154.3,73.12 149.18,73.92 143.83,74.57L154.88,73.02C158.4,71.91 160.84,70.21 160.84,67.74C160.7,62.95 147.13,59.94 132.58,58.06L132.58,57.45C144.08,58.86 157.11,60.95 162.05,64.66C165.13,67.09 164.84,70.71 160.25,73.37C151.01,78.62 126.9,81.72 92.09,81.72C59.25,81.72 30.67,78.74 20.17,73.97C14.19,71.16 13.6,66.48 18.8,63.72L17.08,64.17C12.63,66.43 11.18,70.11 14.64,73.37C21,79.22 47.07,82.63 84.95,82.63C118.3,82.63 147.03,79.22 158.22,73.97C164.74,70.81 165.13,66.13 160.1,62.8L159.22,62.2L159.51,63.41L159.22,62.8C159.66,63.06 160.05,63.36 160.4,63.72C162.98,66.13 162.64,70.11 157.4,73.02C146.6,78.87 121.11,82.17 86.14,82.17C52.19,82.17 25.51,78.32 15.6,73.37C10.11,70.56 10.41,66.11 15.3,63.41L15.75,62.2L16.2,61.45C21.98,58.61 35.41,57.45 44.35,56.65C55.15,55.75 67.21,55.6 80.04,55.6C100.44,55.6 118.11,56.3 131.7,57.7L131.7,58.06L131.7,57.45L131.7,57.7L131.7,57.1C118.11,55.75 101.13,55.04 82.12,55.49C61.87,55.95 42.12,56.65 28.4,59.54C24.1,60.49 20.21,61.65 17.08,63.11L17.37,61.65L16.2,62.2C15.46,62.61 14.78,63.06 14.14,63.56L13.1,63.85L13.55,62.2L12.67,62.61C11.22,63.41 9.91,64.41 8.88,65.58C6.72,68.14 6.87,71.77 11.18,74.57C19,79.63 44.04,83.33 80.9,83.63C112.25,83.93 139.38,80.61 152.66,75.73C160.35,72.77 163.23,69.05 161.32,65.12L160.1,63.41L159.12,62.2L159.41,62.61C160.1,63.11 160.7,63.66 161.13,64.27L160.7,63.11L159.81,62.3L159.12,61.65L158.67,61.35L159.26,62.2L160,62.8L160.74,63.72L161.33,64.66L161.78,65.73L162.22,67.04L162.52,68.49L162.37,69.8L161.78,71.11L160.74,72.42L159.19,73.72L157.18,74.92L154.7,76.03L151.82,77.13L148.54,78.19L144.85,79.2L140.7,80.11L136.11,80.96L131.16,81.72L125.82,82.42L120.03,83.03L113.88,83.58L107.22,83.98L100.21,84.29L92.77,84.29L84.95,84.13L76.87,83.78L68.63,83.23L60.28,82.42L52.04,81.31L43.91,79.86L36.27,78.04L29.21,75.83L23.07,73.02L20.03,70.61L18.62,68.04L19.07,66.03L20.81,64.32L23.84,62.61L28.15,61.05L33.79,59.64L40.5,58.43L48.48,57.43L57.42,56.62L67.5,56.07L78.6,55.72L90.66,55.62L102.87,55.87L114.93,56.42L126.43,57.38L136.84,58.78" style="fill:rgb(103,148,165);fill-rule:nonzero;"/>
        <path d="M70.38,7.77C72.69,5.11 78.98,4.01 88.63,4.01C97.28,4.01 106.22,5.47 106.52,8.02C106.96,11.14 98.62,12.45 88.63,12.45C79.23,12.45 72.09,10.89 70.08,8.83C69.35,8.02 69.64,8.02 70.38,7.77Z" style="fill-rule:nonzero;"/>
        <path d="M75.27,7.62C77.12,6.26 82.16,5.61 88.82,5.61C95.19,5.61 101.61,6.41 102.64,7.77C101.19,9.08 95.99,9.78 89.12,9.78C82.41,9.78 77.12,8.83 75.27,7.62Z" style="fill:rgb(184,210,223);fill-rule:nonzero;"/>
        <path d="M78.19,15.26C62.08,13.1 42.01,25.92 34.13,45.79C31.66,52.09 33.82,55.19 36.13,53.05C37.73,51.64 39.12,47.05 43.27,41.05C51.1,29.43 61.88,19.21 78.19,15.26Z" style="fill:white;fill-rule:nonzero;"/>
        <path d="M43.12,63.11C44.15,51.04 48.01,39.12 57.82,27.75C47.03,37.11 43.12,48.11 43.12,63.11Z" style="fill:white;fill-rule:nonzero;"/>
        <path d="M11.35,78.74L13.21,87.52L12.18,87.12L10.32,79.05L11.35,78.74Z" style="fill-rule:nonzero;"/>
        <path d="M17.53,80.96L18.12,88.52L17.24,88.22L16.65,80.61L17.53,80.96Z" style="fill-rule:nonzero;"/>
        <path d="M24.2,83.03L23.61,90.89L22.87,90.59L23.46,82.72L24.2,83.03Z" style="fill-rule:nonzero;"/>
        <path d="M31.12,84.69L30.38,92.99L29.64,92.84L30.23,84.49L31.12,84.69Z" style="fill-rule:nonzero;"/>
        <path d="M38.62,85.9L37.88,95.21L37.14,95.06L37.73,85.75L38.62,85.9Z" style="fill-rule:nonzero;"/>
        <path d="M47.72,87.12L47.13,96.58L46.44,96.43L46.88,86.97L47.72,87.12Z" style="fill-rule:nonzero;"/>
        <path d="M56.06,87.72L55.76,97.18L55.17,97.18L55.47,87.62L56.06,87.72Z" style="fill-rule:nonzero;"/>
        <path d="M65.26,88.07L65.41,96.98L65.11,96.98L64.82,88.02L65.26,88.07Z" style="fill-rule:nonzero;"/>
        <path d="M152.6,83.03L151.14,90.89L150.4,90.59L151.72,82.72L152.6,83.03Z" style="fill-rule:nonzero;"/>
        <path d="M165.3,79.05L163.5,86.61L162.62,86.31L164.27,78.74L165.3,79.05Z" style="fill-rule:nonzero;"/>
        <path d="M161,79.91L158.99,87.12L158.11,86.82L160.11,79.5L161,79.91Z" style="fill-rule:nonzero;"/>
        <path d="M115.8,97.18C126.25,96.33 139.23,95.06 149.68,93.25L149.68,93.55C139.82,95.72 127.13,97.33 115.8,97.73L115.8,97.18Z" style="fill-rule:nonzero;"/>
        <path d="M23.02,132.7C23.02,131.24 31.81,131.24 41.71,131.09C51.61,130.94 60.41,131.24 60.41,132.55C60.41,133.86 51.61,134.76 41.71,134.76C31.81,134.76 23.02,134.01 23.02,132.7Z" style="fill-rule:nonzero;"/>
        <path d="M33.11,139.5C33.11,138.34 40.24,138.19 48.63,137.74C57.03,137.29 64.16,137.29 64.16,138.49C64.16,139.65 57.03,140.81 48.63,140.91C40.24,141.06 33.11,140.65 33.11,139.5Z" style="fill-rule:nonzero;"/>
        <path d="M111.3,130.3C111.3,128.29 120.39,127.59 129.89,126.38C138.68,125.28 145.65,125.88 145.65,127.14C145.65,128.69 138.68,130.6 129.44,131.66C120.04,132.71 111.3,132.26 111.3,130.3Z" style="fill-rule:nonzero;"/>
        <path d="M46.73,232.6C46.73,225.1 64.4,221.25 88.97,220.65C111.87,220.09 131.76,224.24 132.15,232.09C132.45,238.82 114.04,242.62 93.03,243.16C70.57,243.72 46.73,239.73 46.73,232.6Z" style="fill-rule:nonzero;"/>
        <path d="M49.1,232.6C49.1,226.15 65.36,223.41 86.32,222.91C105.92,222.41 124.93,225.7 125.18,231.7C125.42,237.26 108.81,239.93 90.84,240.64C71.25,241.4 49.1,238.52 49.1,232.6Z" style="fill:rgb(184,210,223);fill-rule:nonzero;"/>
        <path d="M62.08,232.6C62.08,228.71 72.11,227.3 82.71,227L89.98,226.85L89.98,227.3C80.59,227.75 70.13,228.91 70.13,232.09C70.13,234.81 80.12,237.06 89.98,237.41L89.98,237.71C78.44,238.21 62.08,236.61 62.08,232.6Z" style="fill:rgb(241,242,242);fill-rule:nonzero;"/>
        <path d="M106.2,218.1C118.26,219.3 132.14,221.56 136.45,227.06L136.3,226.26C131.56,221.16 120.21,219.15 106.2,217.59L106.2,218.1Z" style="fill-rule:nonzero;"/>
        <path d="M40.1,253C46.04,257.4 56.08,258.91 65.02,259.81L65.17,259.51C55.46,258.1 46.07,256.19 40.1,252.45L40.1,253Z" style="fill-rule:nonzero;"/>
        <path d="M45.29,246.2C52.83,249.59 61.83,250.79 76.52,251.69L76.52,251.29C63.98,250.19 53.23,248.59 45.29,245.1L45.29,246.2Z" style="fill-rule:nonzero;"/>
    </g>
</svg>
