<?xml version="1.0" encoding="UTF-8" standalone="no"?>
<!DOCTYPE svg PUBLIC "-//W3C//DTD SVG 1.1//EN" "http://www.w3.org/Graphics/SVG/1.1/DTD/svg11.dtd">
<svg width="100%" height="100%" viewBox="0 0 204 75" version="1.1" xmlns="http://www.w3.org/2000/svg" xmlns:xlink="http://www.w3.org/1999/xlink" xml:space="preserve" xmlns:serif="http://www.serif.com/" style="fill-rule:evenodd;clip-rule:evenodd;stroke-linejoin:round;stroke-miterlimit:2;">
    <g transform="matrix(1,0,0,1,-34.7912,-51.995)">
        <g transform="matrix(0.491889,0,0,0.491889,1.68243,62.9027)">
            <path d="M69.07,7.03L76.36,4.22C79.73,2.93 80.11,4.36 80.11,6.07L80.11,28.67L80.43,28.67C82.72,23.98 86.71,20.98 92.11,21.11C102.38,21.11 106.19,29.84 106.19,39.31C106.19,50.96 100.21,61.16 86.32,61.16C77.11,61.16 70.21,56.15 70.21,46.14L70.21,13.06C70.21,10.44 69.63,9.73 68.06,8.96C67.16,8.51 66.64,7.61 69.07,7.03ZM80.18,49.2C80.18,55.05 82.62,57.61 87.03,57.61C93.73,57.61 96.16,48.94 96.16,42.31C96.16,35.49 93.66,27.15 87.87,27.15C83.75,27.15 80.18,32.81 80.18,38.14L80.18,49.2Z" style="fill:rgb(175,5,0);fill-rule:nonzero;"/>
        </g>
        <g transform="matrix(0.491889,0,0,0.491889,1.68243,62.9027)">
            <path d="M110.2,31.12C110.2,23.91 117.69,20.79 124.91,20.79C134.06,20.79 138.73,24.76 138.73,34.36L138.73,52.19C138.73,55.83 139.31,57.33 140.41,57.65C141.91,58.23 142.1,60.39 139.18,60.84C137.89,61.03 136.6,61.16 135.5,61.16C131.22,61.16 130.18,59.25 130.38,56.09L130.18,55.96C127.92,59.86 124.49,61.54 119.5,61.54C112.86,61.54 108.65,57.97 108.65,51.8C108.65,45.43 113.57,42.11 120.79,40.2L129.6,37.76L129.6,33.26C129.6,28.22 128,25.34 124.29,25.34C120.79,25.34 119.06,27.02 119.06,31.18L119.06,32.75C119.06,35.56 117.13,36.66 115,36.66C112.08,36.66 110.2,35.23 110.2,31.12ZM122.66,56.54C127.65,56.54 129.98,51.54 129.79,45.63L129.79,40.65L124.52,42.96C120.34,44.73 118.01,47.36 118.01,51.35C118.01,54.86 119.81,56.54 122.66,56.54Z" style="fill:rgb(175,5,0);fill-rule:nonzero;"/>
        </g>
        <g transform="matrix(0.491889,0,0,0.491889,1.68243,62.9027)">
            <path d="M142.6,53.06L142.6,51.74C142.6,49.04 143.83,48.01 146.02,48.01C148.42,48.01 149,49.43 149.32,52.32C149.71,55.86 152.63,57.77 156.71,57.77C160.92,57.77 163.42,55.61 163.42,52.42C163.42,49.17 159.98,47.39 154.79,45.06C148.81,42.43 142.89,39.93 142.89,32.72C142.89,25.77 148.68,20.79 158.16,20.79C166.03,20.79 171.15,23.78 171.15,29.31C171.15,32.72 169.58,34.22 167.22,34.22C164.95,34.22 163.73,33.07 163.47,29.95C163.15,26.6 161.09,24.76 157.09,24.76C153.16,24.76 150.83,26.92 150.83,29.89C150.83,33.27 154.6,35.01 159.2,36.92C165.9,39.61 172.28,42.08 172.28,49.56C172.28,56.97 165.84,61.16 156.9,61.16C148.22,61.16 142.6,58.16 142.6,53.06Z" style="fill:rgb(175,5,0);fill-rule:nonzero;"/>
        </g>
        <g transform="matrix(0.491889,0,0,0.491889,1.68243,62.9027)">
            <path d="M174.5,43.08C174.5,30.47 181.65,20.79 193.43,20.79C202.77,20.79 207.24,26.7 207.24,32.1C207.24,38.73 201.69,43.46 183.74,44.23C184.64,51.15 188.51,55.25 194.75,55.25C199.13,55.25 202.18,52.81 204.68,49.11C205.65,48.01 207.56,48.46 207.24,50.43C205.77,57.06 199.98,61.85 192.04,61.85C181.65,61.85 174.5,54.8 174.5,43.08ZM183.35,40.92C194.88,40.21 199.45,37.15 199.45,31.72C199.45,27.75 196.95,25.06 192.92,25.06C186.68,25.06 183.48,30.91 183.35,39.45L183.35,40.92Z" style="fill:rgb(175,5,0);fill-rule:nonzero;"/>
        </g>
        <g transform="matrix(0.491889,0,0,0.491889,106.097,35.8856)">
            <path d="M6.82,83.12C5.88,81.02 4.71,80.7 4.71,79.8C4.71,78.97 5.36,78.84 6.36,78.84L17.96,78.84C18.86,78.84 19.51,79.16 19.51,79.87C19.51,80.96 17.38,81.15 18.03,83.12L26.72,109.19L27.04,109.19L33.94,89.38L30.74,82.34C29.73,80.43 28.31,79.85 28.31,79.11C28.31,78.66 28.76,78.84 29.41,78.84L43.23,78.84C44.23,78.84 44.81,79.03 44.81,79.74C44.81,80.77 42.02,81.15 42.73,83.31L51.42,109.19L51.74,109.19C57.22,95.72 61.18,83.05 62.22,76.01C42.28,75.95 20.25,66.54 17.52,49.75C16.09,40.95 20.76,32.75 29.6,32.75C35.52,32.75 38.96,36.78 40.83,40.68C43.75,37.75 47.46,36.14 51.61,36.14C61.45,36.14 67.31,46.85 67.05,62.7C67,66.05 66.73,69.24 66.28,71.93C80.69,71.22 90.96,67.84 108.06,63.94C111.18,63.17 112.12,64.32 112.12,66.82L112.12,112.08C112.12,114.58 113.85,115.03 113.85,116.35C113.85,117.44 113.02,117.7 111.66,117.7L102.25,117.7C100.89,117.7 100.06,117.44 100.06,116.35C100.06,115.03 101.79,114.58 101.79,112.08L101.79,73.16C101.79,70.94 100.96,70.11 98.63,70.56C88.11,72.96 79.09,75.59 65.61,76.04C63.05,88.71 57.43,103.27 53.38,114.92C52.55,117.42 51.78,117.7 49.15,117.7L47.15,117.7C44.95,117.7 44.24,117.19 43.31,114.66L35.95,95.11L28.59,114.79C27.76,117.16 27.11,117.7 24.61,117.7L22.21,117.7C19.95,117.7 18.91,117.32 18.15,114.92L6.82,83.12ZM63.27,71.99C63.78,68.67 63.97,65.38 63.97,62.45C63.97,49.85 60.26,39.9 52.03,39.9C46.91,39.9 43.41,43.34 40.84,47.81C39.91,49.35 37.65,48.65 37.33,46.74C36.14,41.21 33.45,36.98 29.14,37.11C23.73,37.24 20.43,42.63 21.26,49.26C23.25,62.92 38.89,71.99 58.96,71.99L63.27,71.99Z" style="fill:rgb(175,5,0);fill-rule:nonzero;"/>
        </g>
        <g transform="matrix(0.491889,0,0,0.491889,106.097,35.8856)">
            <path d="M65.77,99.88C65.77,88.23 72.92,79.23 84.32,79.23C93.66,79.23 98.13,84.76 98.13,89.7C98.13,95.94 93.4,100.37 76.23,100.82C76.81,107.32 80.45,111.54 86.89,111.54C91.39,111.54 94.31,108.85 96.44,105.31C97.41,104.22 98.92,104.73 98.53,106.54C96.83,113.53 91.71,118.66 82.93,118.66C72.92,118.66 65.77,111.61 65.77,99.88ZM74.62,97.45C84.7,97.06 89.82,94.69 89.82,89.25C89.82,85.65 87.42,83.05 83.56,83.05C77.64,83.05 74.72,88.55 74.62,96.55L74.62,97.45Z" style="fill:rgb(175,5,0);fill-rule:nonzero;"/>
        </g>
        <g transform="matrix(0.491889,0,0,0.491889,106.097,35.8856)">
            <path d="M116.8,66.15L124.67,64.06C126.87,63.48 128.16,64.12 128.16,66.22L128.16,112.08C128.16,114.58 129.89,115.03 129.89,116.35C129.89,117.44 129.06,117.7 127.7,117.7L118.29,117.7C116.93,117.7 116.1,117.44 116.1,116.35C116.1,115.03 117.83,114.58 117.83,112.08L117.83,71.93C117.83,69.31 116.67,68.92 115.8,68.47C114.58,67.83 114.51,66.67 116.8,66.15Z" style="fill:rgb(175,5,0);fill-rule:nonzero;"/>
        </g>
        <g transform="matrix(0.491889,0,0,0.491889,106.097,35.8856)">
            <path d="M133.8,85.14C132.23,84.56 131.65,84.11 131.65,83.08C131.65,82.12 132.68,81.54 135.67,80.51L141.29,78.7C143.55,77.93 144,79.15 144,80.83L144,85.93L144.2,85.93C147.05,80.96 150.42,78.83 156.11,78.83C163.98,78.83 167.41,83.81 167.41,92.21L167.41,112.02C167.41,114.52 169.14,114.97 169.14,116.29C169.14,117.38 168.31,117.64 166.95,117.64L160.18,117.64C158.82,117.64 157.99,117.38 157.99,116.29C157.99,114.97 159.03,114.52 159.03,112.02L159.03,92.73C159.03,87.49 156.97,85.16 153.01,85.16C148.34,85.16 144,89.06 144,97.46L144,112.02C144,114.52 145.73,114.97 145.73,116.29C145.73,117.38 144.9,117.64 143.54,117.64L134.13,117.64C132.77,117.64 131.94,117.38 131.94,116.29C131.94,114.97 133.67,114.52 133.67,112.02L133.67,86.95C133.67,85.92 133.8,85.14 133.8,85.14Z" style="fill:rgb(175,5,0);fill-rule:nonzero;"/>
        </g>
        <g transform="matrix(0.491889,0,0,0.491889,106.097,35.8856)">
            <path d="M171.3,99.88C171.3,88.23 178.45,79.23 189.24,79.23C198.58,79.23 203.05,84.76 203.05,89.7C203.05,95.94 198.32,100.37 182.14,100.82C182.72,107.32 186.36,111.54 192.8,111.54C197.3,111.54 200.22,108.85 202.35,105.31C203.32,104.22 204.83,104.73 204.44,106.54C202.74,113.53 197.62,118.66 188.84,118.66C178.45,118.66 171.3,111.61 171.3,99.88ZM180.15,97.45C189.3,97.06 194.42,94.69 194.42,89.25C194.42,85.65 192.02,83.05 188.16,83.05C182.24,83.05 179.98,88.55 179.85,96.55L179.85,97.45L180.15,97.45Z" style="fill:rgb(175,5,0);fill-rule:nonzero;"/>
        </g>
        <g transform="matrix(0.491889,0,0,0.491889,106.097,35.8856)">
            <path d="M206.8,110.5L206.8,109.18C206.8,106.49 208.03,105.46 210.22,105.46C212.62,105.46 213.2,106.88 213.52,109.77C213.91,113.31 216.83,115.22 220.91,115.22C225.12,115.22 227.62,113.06 227.62,109.87C227.62,106.62 224.18,104.84 218.99,102.51C213.01,99.88 207.09,97.38 207.09,90.17C207.09,83.22 212.88,78.86 222.36,78.86C230.23,78.86 235.35,81.85 235.35,87.38C235.35,90.79 233.78,92.29 231.42,92.29C229.15,92.29 227.93,91.14 227.67,88.02C227.35,84.67 225.29,82.83 221.29,82.83C217.36,82.83 215.03,84.99 215.03,87.96C215.03,91.34 218.8,93.08 223.4,94.99C230.1,97.68 236.48,100.15 236.48,107.63C236.48,115.04 229.78,118.68 220.84,118.68C212.42,118.68 206.8,116.05 206.8,110.5Z" style="fill:rgb(175,5,0);fill-rule:nonzero;"/>
        </g>
        <g transform="matrix(0.491889,0,0,0.491889,106.097,35.8856)">
            <path d="M238.9,110.5L238.9,109.18C238.9,106.49 240.13,105.46 242.32,105.46C244.72,105.46 245.3,106.88 245.62,109.77C246.01,113.31 248.93,115.22 253.01,115.22C257.22,115.22 259.72,113.06 259.72,109.87C259.72,106.62 256.28,104.84 251.09,102.51C245.11,99.88 239.19,97.38 239.19,90.17C239.19,83.22 244.98,78.86 254.46,78.86C262.33,78.86 267.45,81.85 267.45,87.38C267.45,90.79 265.88,92.29 263.52,92.29C261.25,92.29 260.03,91.14 259.77,88.02C259.45,84.67 257.39,82.83 253.39,82.83C249.46,82.83 247.13,84.99 247.13,87.96C247.13,91.34 250.9,93.08 255.5,94.99C262.2,97.68 268.58,100.15 268.58,107.63C268.58,115.04 262.14,118.68 253.2,118.68C244.52,118.68 238.9,116.05 238.9,110.5Z" style="fill:rgb(175,5,0);fill-rule:nonzero;"/>
        </g>
        <g transform="matrix(0.491889,0,0,0.491889,69.6596,37.9027)">
            <path d="M73.27,160C73.27,148.15 80.36,139.28 92.21,139.28C102.86,139.28 107.27,144.75 107.27,150.05C107.27,154.74 104.94,155.93 102.44,155.93C99.14,155.93 97.85,153.84 97.98,149.34C98.11,145.64 96.24,143.48 92.74,143.48C86.17,143.48 83.51,151.15 83.51,158.14C83.51,166.8 88.31,171.66 94.75,171.66C99.58,171.66 102.31,168.84 104.81,165.24C105.71,164.21 107.22,164.72 106.7,166.6C104.83,173.65 99.71,179.11 90.93,179.11C80.42,179.11 73.27,171.73 73.27,160Z" style="fill:rgb(175,5,0);fill-rule:nonzero;"/>
        </g>
        <g transform="matrix(0.491889,0,0,0.491889,69.6596,37.9027)">
            <path d="M111.3,150.1C111.3,142.89 116.79,139.35 125.41,139.35C134.56,139.35 139.83,143.32 139.83,152.92L139.83,168.76C139.83,172.4 140.41,173.9 141.51,174.22C143.01,174.8 143.2,176.96 140.28,177.41C138.99,177.6 137.7,177.73 136.6,177.73C132.32,177.73 131.28,176.16 131.48,172.59L131.28,172.46C129.02,176.36 125.59,178.66 120.6,178.66C113.96,178.66 109.75,175.51 109.75,169.34C109.75,162.97 114.67,159.65 121.89,157.74L129.76,155.3L129.76,150.8C129.76,145.76 128.16,143.52 124.45,143.52C120.95,143.52 119.22,145.2 119.22,149.36L119.22,150.93C119.22,153.74 117.29,154.84 115.16,154.84C112.59,154.83 111.3,153.4 111.3,150.1ZM123.76,173.64C128.75,173.64 131.08,168.64 130.89,162.73L130.89,157.75L125.62,160.01C121.44,161.78 119.11,164.41 119.11,168.4C119.11,171.91 120.91,173.64 123.76,173.64Z" style="fill:rgb(175,5,0);fill-rule:nonzero;"/>
        </g>
        <g transform="matrix(0.491889,0,0,0.491889,69.6596,37.9027)">
            <path d="M146.51,143.5L142.93,143.5C141.57,143.5 141.05,142.86 141.05,141.6C141.05,140.35 141.57,139.77 142.93,139.77L147.6,139.77L148.05,134.91C148.88,126.77 154.07,122.08 162.91,122.08C170.2,122.08 173.4,126.37 173.4,130.47C173.4,133.76 171.53,135.67 168.87,135.67C166.37,135.67 164.77,134.24 164.51,130.67C164.25,127.13 163.15,125.97 161.35,125.97C158.69,125.97 157.18,128.13 157.18,135.24L157.18,139.76L164.74,139.76C166.1,139.76 166.93,140.34 166.93,141.5C166.93,142.76 166.1,143.49 164.74,143.49L157.52,143.49L157.52,170.62C157.52,173.87 160.31,174.13 160.31,175.84C160.31,177.03 159.34,177.42 157.84,177.42L147.05,177.42C145.55,177.42 144.58,176.97 144.58,175.84C144.58,174.13 146.51,173.87 146.51,170.62L146.51,143.5Z" style="fill:rgb(175,5,0);fill-rule:nonzero;"/>
        </g>
        <g transform="matrix(0.491889,0,0,0.491889,69.6596,37.9027)">
            <path d="M165.6,160.3C165.6,148.65 172.75,139.65 183.54,139.65C192.88,139.65 198.5,144.56 198.5,150.12C198.5,156.36 192.95,160.79 175,161.24C175.9,167.74 179.77,171.96 186.01,171.96C190.39,171.96 193.44,169.27 195.94,165.73C196.91,164.64 198.42,165.15 198.03,166.96C196.33,173.95 190.54,179.08 181.76,179.08C172.75,179.08 165.6,172.03 165.6,160.3ZM174.45,157.87C183.6,157.48 188.72,155.11 188.72,149.67C188.72,146.07 186.32,143.47 182.46,143.47C176.54,143.47 174.28,148.97 174.15,156.97L174.15,157.87L174.45,157.87ZM179.97,134.06C180.8,129.15 186.59,124.24 192.7,124.24C194.83,124.24 195.41,125.27 194.58,127.36C192.71,132.27 187.55,136.07 182.52,136.07C180.29,136.07 179.65,135.49 179.97,134.06Z" style="fill:rgb(175,5,0);fill-rule:nonzero;"/>
        </g>
    </g>
</svg>
